<svg xmlns="http://www.w3.org/2000/svg" version="1.1" xmlns:xlink="http://www.w3.org/1999/xlink" xmlns:svgjs="http://svgjs.dev/svgjs" width="1500" height="935" viewBox="0 0 1500 935"><g transform="matrix(1,0,0,1,-0.9090909090909918,0.3785425101214628)"><svg viewBox="0 0 396 247" data-background-color="#ffffff" preserveAspectRatio="xMidYMid meet" height="935" width="1500" xmlns="http://www.w3.org/2000/svg" xmlns:xlink="http://www.w3.org/1999/xlink"><g id="tight-bounds" transform="matrix(1,0,0,1,0.2400000000000091,-0.09999999999999432)"><svg viewBox="0 0 395.52 247.2" height="247.2" width="395.52"><g><svg></svg></g><g><svg viewBox="0 0 395.52 247.2" height="247.2" width="395.52"><g transform="matrix(1,0,0,1,75.54432,70.32368968848169)"><svg viewBox="0 0 244.43135999999998 106.55262062303659" height="106.55262062303659" width="244.43135999999998"><g><svg viewBox="0 0 244.43135999999998 106.55262062303659" height="106.55262062303659" width="244.43135999999998"><g><svg viewBox="0 0 244.43136 106.5526206230366" height="106.55262062303659" width="244.43135999999998"><g><svg viewBox="0 0 244.43136 106.5526206230366" height="106.5526206230366" width="244.43136"><g id="textblocktransform"><svg viewBox="0 0 244.43136 106.5526206230366" height="106.5526206230366" width="244.43136" id="textblock"><g><svg viewBox="0 0 244.43136 73.38117602541476" height="73.38117602541476" width="244.43136"><g transform="matrix(1,0,0,1,0,0)"><svg width="244.43136" viewBox="3.1 -33.1 141.64000000000001 42.53" height="73.38117602541476" data-palette-color="#233565"><path d="M24.2-15.65L24.2 0 19.3 0 19.3-15.1Q19.3-16.88 18.81-18.18 18.32-19.48 17.21-20.2 16.1-20.93 14.18-20.93L14.18-20.93Q12.4-20.93 11.11-20.28 9.83-19.63 9.03-18.53 8.22-17.43 7.88-16.03L7.88-16.03 6.9-19.43 8.13-19.43Q8.55-20.98 9.53-22.24 10.5-23.5 12.13-24.25 13.75-25 16.1-25L16.1-25Q18.98-25 20.75-23.91 22.53-22.83 23.36-20.75 24.2-18.68 24.2-15.65L24.2-15.65ZM8-17.9L8 0 3.1 0 3.1-33.1 7.98-33.1 7.98-25.3 7.85-18.25 8-17.9ZM45.02-16.93L41.35 0 33.95 0 28.2-24.45 33.25-24.45 37.57-3.53 38-3.53 42.47-23.8 49.32-23.8 53.8-3.53 54.2-3.53 58.57-24.45 63.57-24.45 57.82 0 50.47 0 46.8-16.93 46.1-20.28 45.7-20.28 45.02-16.93ZM75.89 0.55L75.89 0.55Q71.52 0.55 69.23-2.2 66.94-4.95 66.94-10.23L66.94-10.23 66.94-14.1Q66.94-19.43 69.26-22.21 71.57-25 76.09-25L76.09-25Q78.27-25 79.83-24.31 81.39-23.63 82.38-22.38 83.37-21.13 83.8-19.43L83.8-19.43 85.42-19.43 84.05-14.9Q83.97-16.9 83.17-18.26 82.37-19.63 80.97-20.33 79.57-21.03 77.69-21.03L77.69-21.03Q74.87-21.03 73.37-19.4 71.87-17.78 71.87-14.58L71.87-14.58 71.87-9.9Q71.87-6.78 73.36-5.15 74.84-3.53 77.69-3.53L77.69-3.53Q79.42-3.53 80.73-4.17 82.05-4.83 82.92-5.95 83.8-7.08 84.12-8.47L84.12-8.47 85.27-5.03 83.84-5.03Q83.44-3.5 82.51-2.23 81.57-0.95 79.97-0.2 78.37 0.55 75.89 0.55ZM88.82-33.1L88.82 0 83.92 0 84.12-5.73 84.05-7.28 84.05-17.43 84.07-18.38 83.94-25.3 83.94-33.1 88.82-33.1ZM107.74 0.55L107.74 0.55Q105.57 0.55 103.99-0.14 102.42-0.83 101.43-2.09 100.44-3.35 99.99-5.03L99.99-5.03 98.37-5.03 99.79-9.65Q99.89-7.6 100.72-6.24 101.54-4.88 102.97-4.2 104.39-3.53 106.22-3.53L106.22-3.53Q109.02-3.53 110.49-5.16 111.97-6.8 111.97-10.05L111.97-10.05 111.97-14.63Q111.97-17.78 110.48-19.4 108.99-21.03 106.17-21.03L106.17-21.03Q104.44-21.03 103.12-20.38 101.79-19.73 100.93-18.61 100.07-17.5 99.72-16.07L99.72-16.07 98.64-19.43 100.04-19.43Q100.47-20.98 101.38-22.24 102.29-23.5 103.89-24.25 105.49-25 107.94-25L107.94-25Q112.32-25 114.61-22.25 116.89-19.5 116.89-14.23L116.89-14.23 116.89-10.35Q116.89-5.03 114.57-2.24 112.24 0.55 107.74 0.55ZM99.72-5.73L99.92 0 95.02 0 95.02-33.1 99.89-33.1 99.89-25.3 99.77-18.28 99.79-17.43 99.79-7.28 99.72-5.73ZM131.99-7.4L131.99-7.4Q126.84-7.4 124.09-9.6 121.34-11.8 121.34-15.88L121.34-15.88 121.34-16.28Q121.34-18.85 122.42-20.74 123.49-22.63 125.85-23.69 128.22-24.75 132.04-24.88L132.04-24.88 144.74-25.3 144.74-21.48 137.94-21.78 137.94-21.5Q139.39-21.13 140.35-20.34 141.31-19.55 141.81-18.38 142.31-17.2 142.31-15.6L142.31-15.6 142.31-15.33Q142.31-11.48 139.7-9.44 137.09-7.4 131.99-7.4ZM131.79 5.53L131.79 5.53 132.42 5.53Q134.54 5.53 136.02 5.23 137.49 4.93 138.28 4.28 139.06 3.63 139.06 2.55L139.06 2.55 139.06 2.48Q139.06 1.2 138.17 0.56 137.27-0.08 135.04-0.28L135.04-0.28 127.99-0.95 129.22-1Q128.02-0.8 127.1-0.39 126.19 0.03 125.68 0.69 125.17 1.35 125.17 2.33L125.17 2.33 125.17 2.38Q125.17 3.53 125.95 4.23 126.74 4.93 128.23 5.23 129.72 5.53 131.79 5.53ZM132.31 9.43L132.31 9.43 131.49 9.43Q128.12 9.43 125.68 8.84 123.24 8.25 121.93 6.96 120.62 5.68 120.62 3.55L120.62 3.55 120.62 3.45Q120.62 2.02 121.25 1.05 121.89 0.08 123-0.51 124.12-1.1 125.49-1.3L125.49-1.3 125.49-1.55Q123.67-1.93 122.78-2.79 121.89-3.65 121.89-5.03L121.89-5.03 121.89-5.05Q121.89-6 122.32-6.69 122.74-7.38 123.6-7.79 124.47-8.2 125.77-8.33L125.77-8.33 125.77-8.88 130.92-7.63 129.04-7.7Q127.57-7.68 127-7.33 126.44-6.98 126.44-6.33L126.44-6.33 126.44-6.3Q126.44-5.55 127.28-5.19 128.12-4.83 130.12-4.6L130.12-4.6 136.06-3.95Q140.02-3.53 141.84-2.02 143.67-0.53 143.67 2.53L143.67 2.53 143.67 2.65Q143.67 5 142.3 6.5 140.94 8 138.4 8.71 135.87 9.43 132.31 9.43ZM131.92-11L131.92-11Q133.84-11 135.13-11.56 136.42-12.13 137.06-13.25 137.72-14.38 137.72-16L137.72-16 137.72-16.38Q137.72-17.98 137.08-19.07 136.44-20.18 135.18-20.75 133.92-21.33 131.99-21.33L131.99-21.33 131.87-21.33Q129.79-21.33 128.49-20.71 127.19-20.1 126.6-18.99 126.02-17.88 126.02-16.35L126.02-16.35 126.02-16Q126.02-14.38 126.67-13.25 127.32-12.13 128.63-11.56 129.94-11 131.92-11Z" opacity="1" transform="matrix(1,0,0,1,0,0)" fill="#233565" class="wordmark-text-0" data-fill-palette-color="primary" id="text-0"></path></svg></g></svg></g><g transform="matrix(1,0,0,1,0,90.70471053679057)"><svg viewBox="0 0 244.43136 15.847910086246028" height="15.847910086246028" width="244.43136"><g transform="matrix(1,0,0,1,0,0)"><svg width="244.43136" viewBox="3.78 -33.48 660.82 42.86" height="15.847910086246028" data-palette-color="#233565"><path d="M7.93-31.95L7.93 0 3.78 0 3.78-31.95 7.93-31.95ZM27.23-31.95L27.23 0 23.08 0 23.08-31.95 27.23-31.95ZM6.15-14.73L6.15-18.23 24.73-18.23 24.73-14.73 6.15-14.73ZM42.95-3.78L45.27-3.78 43.15-2.85 50.45-24.4 54.62-24.4 43.15 8.6 39.05 8.6 42.9-2.55 44.67-1 40.07-1 32.1-24.4 36.3-24.4 42.95-3.78ZM71.02 0.53L71.02 0.53Q68.77 0.53 67.12-0.23 65.47-0.98 64.45-2.38 63.42-3.78 63.07-5.63L63.07-5.63 61.75-5.63 62.92-9.43Q63.02-7.23 63.91-5.76 64.8-4.3 66.32-3.58 67.85-2.85 69.77-2.85L69.77-2.85Q72.85-2.85 74.48-4.65 76.12-6.45 76.12-9.93L76.12-9.93 76.12-14.6Q76.12-18.05 74.5-19.85 72.87-21.65 69.77-21.65L69.77-21.65Q67.92-21.65 66.5-20.93 65.07-20.2 64.13-18.95 63.2-17.7 62.85-16.1L62.85-16.1 61.85-18.93 63.02-18.93Q63.42-20.6 64.38-21.96 65.35-23.33 67.03-24.14 68.72-24.95 71.2-24.95L71.2-24.95Q75.6-24.95 77.9-22.21 80.2-19.48 80.2-14.28L80.2-14.28 80.2-10.23Q80.2-4.98 77.88-2.23 75.57 0.53 71.02 0.53ZM63.02 8.6L59 8.6 59-24.4 63.05-24.4 62.87-18.53 62.92-17.28 62.92-7 62.9-6.18 63.02 0.68 63.02 8.6ZM96.09 0.55L96.09 0.55Q90.52 0.55 87.69-2.18 84.87-4.9 84.87-9.98L84.87-9.98 84.87-14.33Q84.87-19.48 87.49-22.26 90.12-25.05 95.17-25.05L95.17-25.05Q98.57-25.05 100.84-23.79 103.12-22.53 104.27-20.2 105.42-17.88 105.42-14.65L105.42-14.65 105.42-13.75Q105.42-12.95 105.36-12.15 105.29-11.35 105.19-10.58L105.19-10.58 101.47-10.58Q101.52-11.78 101.53-12.85 101.54-13.93 101.54-14.83L101.54-14.83Q101.54-17.05 100.83-18.59 100.12-20.13 98.71-20.94 97.29-21.75 95.17-21.75L95.17-21.75Q92.02-21.75 90.44-19.93 88.87-18.1 88.87-14.7L88.87-14.7 88.87-12.38 88.89-11.88 88.89-9.55Q88.89-8.03 89.34-6.8 89.79-5.58 90.76-4.69 91.72-3.8 93.21-3.34 94.69-2.88 96.74-2.88L96.74-2.88Q99.12-2.88 101.17-3.5 103.22-4.13 105.02-5.2L105.02-5.2 104.64-1.7Q103.02-0.68 100.87-0.06 98.72 0.55 96.09 0.55ZM104.34-10.58L86.99-10.58 86.99-13.63 104.34-13.63 104.34-10.58ZM114.67-14.93L114.67-14.93 113.74-18.05 114.74-18.1Q115.54-21.2 117.49-22.99 119.44-24.78 122.67-24.78L122.67-24.78Q123.47-24.78 124.1-24.65 124.74-24.53 125.24-24.35L125.24-24.35 125.49-20.43Q124.87-20.63 124.1-20.75 123.34-20.88 122.42-20.88L122.42-20.88Q119.67-20.88 117.63-19.35 115.59-17.82 114.67-14.93ZM114.87 0L110.82 0 110.82-24.4 114.77-24.4 114.57-17.2 114.87-16.9 114.87 0ZM140.64 0L132.74 0 132.74-3.5 140.49-3.5Q144.74-3.5 146.88-5.81 149.01-8.13 149.01-12.43L149.01-12.43 149.01-19.55Q149.01-23.88 146.88-26.18 144.74-28.48 140.49-28.48L140.49-28.48 132.71-28.48 132.71-31.95 140.64-31.95Q146.84-31.95 150.01-28.76 153.19-25.58 153.19-19.58L153.19-19.58 153.19-12.4Q153.19-6.43 150.01-3.21 146.84 0 140.64 0L140.64 0ZM134.04 0L129.94 0 129.94-31.95 134.04-31.95 134.04 0ZM171.06 0.53L171.06 0.53Q168.81 0.53 167.15-0.23 165.49-0.98 164.46-2.38 163.44-3.78 163.09-5.63L163.09-5.63 161.74-5.63 162.96-9.43Q163.09-7.23 164-5.76 164.91-4.3 166.44-3.58 167.96-2.85 169.89-2.85L169.89-2.85Q172.94-2.85 174.55-4.65 176.16-6.45 176.16-10L176.16-10 176.16-14.58Q176.16-18.05 174.54-19.85 172.91-21.65 169.81-21.65L169.81-21.65Q167.96-21.65 166.54-20.93 165.11-20.2 164.17-18.95 163.24-17.7 162.89-16.1L162.89-16.1 161.96-18.93 163.11-18.93Q163.49-20.6 164.45-21.96 165.41-23.33 167.09-24.14 168.76-24.95 171.24-24.95L171.24-24.95Q175.64-24.95 177.94-22.21 180.24-19.48 180.24-14.28L180.24-14.28 180.24-10.23Q180.24-4.98 177.9-2.23 175.56 0.53 171.06 0.53ZM163.09 0L159.04 0 159.04-33.13 163.06-33.13 163.06-25.18 162.94-18.18 162.96-17.4 162.96-7.2 162.91-5.9 163.09 0ZM195.38-7.3L195.38-7.3Q190.41-7.3 187.75-9.47 185.08-11.65 185.08-15.7L185.08-15.7 185.08-16.32Q185.08-18.85 186.12-20.73 187.16-22.6 189.43-23.66 191.71-24.73 195.38-24.83L195.38-24.83 207.83-25.23 207.83-22.03 200.48-22.28 200.46-22.1Q202.18-21.75 203.28-20.9 204.38-20.05 204.92-18.78 205.46-17.5 205.46-15.8L205.46-15.8 205.46-15.25Q205.46-11.38 202.91-9.34 200.36-7.3 195.38-7.3ZM195.21 6.15L195.21 6.15 195.78 6.15Q198.03 6.15 199.65 5.81 201.26 5.48 202.13 4.75 203.01 4.03 203.01 2.83L203.01 2.83 203.01 2.73Q203.01 1.33 202 0.59 200.98-0.15 198.53-0.38L198.53-0.38 191.63-1 192.78-1.05Q191.38-0.85 190.32-0.4 189.26 0.05 188.66 0.79 188.06 1.53 188.06 2.63L188.06 2.63 188.06 2.68Q188.06 3.95 188.93 4.73 189.81 5.5 191.41 5.83 193.01 6.15 195.21 6.15ZM195.71 9.38L194.98 9.38Q191.68 9.38 189.3 8.81 186.91 8.25 185.59 6.99 184.28 5.73 184.28 3.6L184.28 3.6 184.28 3.5Q184.28 2 185 1 185.71 0 186.92-0.58 188.13-1.15 189.63-1.35L189.63-1.35 189.61-1.5Q187.56-1.85 186.58-2.71 185.61-3.58 185.61-4.95L185.61-4.95 185.61-4.98Q185.61-5.93 186.05-6.6 186.48-7.28 187.37-7.68 188.26-8.08 189.63-8.18L189.63-8.18 189.63-8.68 194.28-7.5 192.38-7.55Q190.68-7.53 190.03-7.14 189.38-6.75 189.38-5.98L189.38-5.98 189.38-5.95Q189.38-5.13 190.31-4.7 191.23-4.28 193.46-4.03L193.46-4.03 199.38-3.43Q203.26-3.03 205.03-1.56 206.81-0.1 206.81 2.75L206.81 2.75 206.81 2.88Q206.81 5.15 205.46 6.6 204.11 8.05 201.63 8.71 199.16 9.38 195.71 9.38L195.71 9.38ZM195.33-10.3L195.33-10.3Q197.43-10.3 198.82-10.91 200.21-11.53 200.92-12.76 201.63-14 201.63-15.8L201.63-15.8 201.63-16.4Q201.63-18.15 200.95-19.38 200.26-20.6 198.88-21.24 197.51-21.88 195.43-21.88L195.43-21.88 195.28-21.88Q193.03-21.88 191.62-21.19 190.21-20.5 189.57-19.26 188.93-18.03 188.93-16.38L188.93-16.38 188.93-15.8Q188.93-14 189.65-12.78 190.36-11.55 191.78-10.93 193.21-10.3 195.33-10.3ZM214.68-33.13L214.28-21 211.08-21 210.68-33.13 214.68-33.13ZM228.08 0.55L228.08 0.55Q225.13 0.55 222.93-0.09 220.73-0.73 219.28-1.48L219.28-1.48 218.9-5.23Q220.73-4.28 222.91-3.58 225.1-2.88 227.88-2.88L227.88-2.88Q230.7-2.88 232.13-3.78 233.55-4.67 233.55-6.45L233.55-6.45 233.55-6.73Q233.55-7.88 233.02-8.63 232.48-9.38 231.08-9.95 229.68-10.53 227.1-11.1L227.1-11.1Q224.03-11.78 222.25-12.69 220.48-13.6 219.72-14.95 218.95-16.3 218.95-18.25L218.95-18.25 218.95-18.48Q218.95-21.68 221.18-23.33 223.4-24.98 227.88-24.98L227.88-24.98Q230.75-24.98 232.87-24.33 234.98-23.68 236.33-22.88L236.33-22.88 236.7-19.45Q235.08-20.4 232.98-21.03 230.88-21.65 228.25-21.65L228.25-21.65Q226.35-21.65 225.18-21.26 224-20.88 223.48-20.16 222.95-19.45 222.95-18.45L222.95-18.45 222.95-18.25Q222.95-17.15 223.48-16.39 224-15.63 225.37-15.06 226.73-14.5 229.15-13.98L229.15-13.98Q232.28-13.35 234.12-12.48 235.95-11.6 236.75-10.26 237.55-8.93 237.55-6.83L237.55-6.83 237.55-6.4Q237.55-2.95 235.15-1.2 232.75 0.55 228.08 0.55ZM263.47 0.55L263.47 0.55Q258.22 0.55 255.66-2.29 253.1-5.13 253.1-10.33L253.1-10.33 253.1-14.13Q253.1-19.35 255.67-22.16 258.25-24.98 263.47-24.98L263.47-24.98Q265.02-24.98 266.3-24.69 267.57-24.4 268.59-23.94 269.6-23.48 270.3-22.98L270.3-22.98 270.65-19.45Q269.47-20.35 267.86-20.98 266.25-21.6 264.07-21.6L264.07-21.6Q260.57-21.6 258.86-19.66 257.15-17.73 257.15-14.03L257.15-14.03 257.15-10.43Q257.15-6.8 258.86-4.85 260.57-2.9 264.07-2.9L264.07-2.9Q266.32-2.9 267.96-3.53 269.6-4.15 270.87-5.05L270.87-5.05 270.5-1.48Q269.4-0.73 267.62-0.09 265.85 0.55 263.47 0.55ZM296.15 0L292.1 0 292.1-15.18Q292.1-17.15 291.56-18.57 291.02-20 289.81-20.79 288.6-21.58 286.5-21.58L286.5-21.58Q284.57-21.58 283.17-20.85 281.77-20.13 280.91-18.89 280.05-17.65 279.7-16.07L279.7-16.07 278.8-18.95 279.85-18.95Q280.22-20.6 281.22-21.96 282.22-23.33 283.91-24.14 285.6-24.95 288.02-24.95L288.02-24.95Q290.92-24.95 292.71-23.85 294.5-22.75 295.32-20.69 296.15-18.63 296.15-15.63L296.15-15.63 296.15 0ZM279.82 0L275.77 0 275.77-33.13 279.8-33.13 279.8-25.18 279.67-18.18 279.82-17.85 279.82 0ZM306.54 0L302.49 0 302.49-24.4 306.54-24.4 306.54 0ZM304.52-28.4L304.52-28.4Q303.27-28.4 302.66-29.06 302.04-29.73 302.04-30.88L302.04-30.88 302.04-31Q302.04-32.18 302.66-32.83 303.27-33.48 304.52-33.48L304.52-33.48Q305.77-33.48 306.39-32.83 307.02-32.18 307.02-31L307.02-31 307.02-30.88Q307.02-29.7 306.39-29.05 305.77-28.4 304.52-28.4ZM325.26 0.53L325.26 0.53Q323.01 0.53 321.37-0.23 319.71-0.98 318.69-2.38 317.67-3.78 317.31-5.63L317.31-5.63 315.99-5.63 317.17-9.43Q317.26-7.23 318.15-5.76 319.04-4.3 320.56-3.58 322.09-2.85 324.01-2.85L324.01-2.85Q327.09-2.85 328.73-4.65 330.37-6.45 330.37-9.93L330.37-9.93 330.37-14.6Q330.37-18.05 328.74-19.85 327.12-21.65 324.01-21.65L324.01-21.65Q322.17-21.65 320.74-20.93 319.31-20.2 318.38-18.95 317.44-17.7 317.09-16.1L317.09-16.1 316.09-18.93 317.26-18.93Q317.67-20.6 318.63-21.96 319.59-23.33 321.28-24.14 322.96-24.95 325.44-24.95L325.44-24.95Q329.84-24.95 332.14-22.21 334.44-19.48 334.44-14.28L334.44-14.28 334.44-10.23Q334.44-4.98 332.13-2.23 329.81 0.53 325.26 0.53ZM317.26 8.6L313.24 8.6 313.24-24.4 317.29-24.4 317.12-18.53 317.17-17.28 317.17-7 317.14-6.18 317.26 0.68 317.26 8.6ZM354.06-11.45L339.86-11.45 339.86-14.78 354.06-14.78 354.06-11.45ZM364.59 0L360.56 0 360.56-33.13 364.59-33.13 364.59 0ZM381.56 0.55L381.56 0.55Q375.98 0.55 373.16-2.18 370.33-4.9 370.33-9.98L370.33-9.98 370.33-14.33Q370.33-19.48 372.96-22.26 375.58-25.05 380.63-25.05L380.63-25.05Q384.03-25.05 386.31-23.79 388.58-22.53 389.73-20.2 390.88-17.88 390.88-14.65L390.88-14.65 390.88-13.75Q390.88-12.95 390.82-12.15 390.76-11.35 390.66-10.58L390.66-10.58 386.93-10.58Q386.98-11.78 387-12.85 387.01-13.93 387.01-14.83L387.01-14.83Q387.01-17.05 386.3-18.59 385.58-20.13 384.17-20.94 382.76-21.75 380.63-21.75L380.63-21.75Q377.48-21.75 375.91-19.93 374.33-18.1 374.33-14.7L374.33-14.7 374.33-12.38 374.36-11.88 374.36-9.55Q374.36-8.03 374.81-6.8 375.26-5.58 376.22-4.69 377.18-3.8 378.67-3.34 380.16-2.88 382.21-2.88L382.21-2.88Q384.58-2.88 386.63-3.5 388.68-4.13 390.48-5.2L390.48-5.2 390.11-1.7Q388.48-0.68 386.33-0.06 384.18 0.55 381.56 0.55ZM389.81-10.58L372.46-10.58 372.46-13.63 389.81-13.63 389.81-10.58ZM405.03-2.78L405.63-2.78 412.38-24.4 416.58-24.4 408.66 0 402.01 0 394.08-24.4 398.28-24.4 405.03-2.78ZM431.23 0.55L431.23 0.55Q425.65 0.55 422.83-2.18 420-4.9 420-9.98L420-9.98 420-14.33Q420-19.48 422.63-22.26 425.25-25.05 430.3-25.05L430.3-25.05Q433.7-25.05 435.98-23.79 438.25-22.53 439.4-20.2 440.55-17.88 440.55-14.65L440.55-14.65 440.55-13.75Q440.55-12.95 440.49-12.15 440.43-11.35 440.33-10.58L440.33-10.58 436.6-10.58Q436.65-11.78 436.67-12.85 436.68-13.93 436.68-14.83L436.68-14.83Q436.68-17.05 435.97-18.59 435.25-20.13 433.84-20.94 432.43-21.75 430.3-21.75L430.3-21.75Q427.15-21.75 425.58-19.93 424-18.1 424-14.7L424-14.7 424-12.38 424.03-11.88 424.03-9.55Q424.03-8.03 424.48-6.8 424.93-5.58 425.89-4.69 426.85-3.8 428.34-3.34 429.83-2.88 431.88-2.88L431.88-2.88Q434.25-2.88 436.3-3.5 438.35-4.13 440.15-5.2L440.15-5.2 439.78-1.7Q438.15-0.68 436-0.06 433.85 0.55 431.23 0.55ZM439.48-10.58L422.13-10.58 422.13-13.63 439.48-13.63 439.48-10.58ZM450.1 0L446.08 0 446.08-33.13 450.1-33.13 450.1 0ZM476.45 0.53L476.45 0.53Q472.05 0.53 469.75-2.2 467.45-4.93 467.45-10.15L467.45-10.15 467.45-14.18Q467.45-19.43 469.77-22.19 472.1-24.95 476.62-24.95L476.62-24.95Q478.87-24.95 480.52-24.19 482.17-23.43 483.2-22.05 484.22-20.68 484.57-18.8L484.57-18.8 485.9-18.8 484.7-15.08Q484.62-17.23 483.73-18.69 482.85-20.15 481.33-20.9 479.82-21.65 477.87-21.65L477.87-21.65Q474.77-21.65 473.13-19.85 471.5-18.05 471.5-14.55L471.5-14.55 471.5-9.9Q471.5-6.45 473.13-4.65 474.77-2.85 477.87-2.85L477.87-2.85Q479.72-2.85 481.15-3.56 482.57-4.28 483.51-5.54 484.45-6.8 484.8-8.4L484.8-8.4 485.8-5.5 484.6-5.5Q484.25-3.85 483.26-2.48 482.27-1.1 480.61-0.29 478.95 0.53 476.45 0.53ZM488.65 0L484.6 0 484.77-5.9 484.7-7.2 484.7-17.4 484.72-18.25 484.62-25.18 484.62-33.13 488.65-33.13 488.65 0ZM505.49 0.55L505.49 0.55Q499.92 0.55 497.09-2.18 494.27-4.9 494.27-9.98L494.27-9.98 494.27-14.33Q494.27-19.48 496.89-22.26 499.52-25.05 504.57-25.05L504.57-25.05Q507.97-25.05 510.24-23.79 512.52-22.53 513.67-20.2 514.82-17.88 514.82-14.65L514.82-14.65 514.82-13.75Q514.82-12.95 514.76-12.15 514.69-11.35 514.59-10.58L514.59-10.58 510.87-10.58Q510.92-11.78 510.93-12.85 510.94-13.93 510.94-14.83L510.94-14.83Q510.94-17.05 510.23-18.59 509.52-20.13 508.11-20.94 506.69-21.75 504.57-21.75L504.57-21.75Q501.42-21.75 499.84-19.93 498.27-18.1 498.27-14.7L498.27-14.7 498.27-12.38 498.29-11.88 498.29-9.55Q498.29-8.03 498.74-6.8 499.19-5.58 500.16-4.69 501.12-3.8 502.61-3.34 504.09-2.88 506.14-2.88L506.14-2.88Q508.52-2.88 510.57-3.5 512.62-4.13 514.42-5.2L514.42-5.2 514.04-1.7Q512.42-0.68 510.27-0.06 508.12 0.55 505.49 0.55ZM513.74-10.58L496.39-10.58 496.39-13.63 513.74-13.63 513.74-10.58ZM532.24 0.53L532.24 0.53Q529.99 0.53 528.33-0.23 526.67-0.98 525.64-2.38 524.62-3.78 524.27-5.63L524.27-5.63 522.92-5.63 524.14-9.43Q524.27-7.23 525.18-5.76 526.09-4.3 527.62-3.58 529.14-2.85 531.07-2.85L531.07-2.85Q534.12-2.85 535.73-4.65 537.34-6.45 537.34-10L537.34-10 537.34-14.58Q537.34-18.05 535.72-19.85 534.09-21.65 530.99-21.65L530.99-21.65Q529.14-21.65 527.72-20.93 526.29-20.2 525.35-18.95 524.42-17.7 524.07-16.1L524.07-16.1 523.14-18.93 524.29-18.93Q524.67-20.6 525.63-21.96 526.59-23.33 528.27-24.14 529.94-24.95 532.42-24.95L532.42-24.95Q536.82-24.95 539.12-22.21 541.42-19.48 541.42-14.28L541.42-14.28 541.42-10.23Q541.42-4.98 539.08-2.23 536.74 0.53 532.24 0.53ZM524.27 0L520.22 0 520.22-33.13 524.24-33.13 524.24-25.18 524.12-18.18 524.14-17.4 524.14-7.2 524.09-5.9 524.27 0ZM546.76-24.4L550.79-24.4 550.79-9.22Q550.79-7.3 551.33-5.86 551.86-4.42 553.09-3.64 554.31-2.85 556.39-2.85L556.39-2.85Q558.34-2.85 559.74-3.56 561.14-4.28 562.03-5.53 562.91-6.78 563.24-8.35L563.24-8.35 563.96-5.48 563.09-5.48Q562.71-3.83 561.71-2.46 560.71-1.1 559.03-0.29 557.34 0.53 554.86 0.53L554.86 0.53Q551.99 0.53 550.2-0.56 548.41-1.65 547.59-3.74 546.76-5.83 546.76-8.78L546.76-8.78 546.76-24.4ZM563.06-24.4L567.11-24.4 567.11 0 563.06 0 563.24-5.85 563.06-6.1 563.06-24.4ZM583.21-7.3L583.21-7.3Q578.24-7.3 575.57-9.47 572.91-11.65 572.91-15.7L572.91-15.7 572.91-16.32Q572.91-18.85 573.95-20.73 574.99-22.6 577.26-23.66 579.53-24.73 583.21-24.83L583.21-24.83 595.66-25.23 595.66-22.03 588.31-22.28 588.28-22.1Q590.01-21.75 591.11-20.9 592.21-20.05 592.75-18.78 593.28-17.5 593.28-15.8L593.28-15.8 593.28-15.25Q593.28-11.38 590.74-9.34 588.18-7.3 583.21-7.3ZM583.03 6.15L583.03 6.15 583.61 6.15Q585.86 6.15 587.47 5.81 589.08 5.48 589.96 4.75 590.83 4.03 590.83 2.83L590.83 2.83 590.83 2.73Q590.83 1.33 589.82 0.59 588.81-0.15 586.36-0.38L586.36-0.38 579.46-1 580.61-1.05Q579.21-0.85 578.15-0.4 577.08 0.05 576.49 0.79 575.88 1.53 575.88 2.63L575.88 2.63 575.88 2.68Q575.88 3.95 576.76 4.73 577.63 5.5 579.24 5.83 580.83 6.15 583.03 6.15ZM583.53 9.38L582.81 9.38Q579.51 9.38 577.12 8.81 574.74 8.25 573.42 6.99 572.11 5.73 572.11 3.6L572.11 3.6 572.11 3.5Q572.11 2 572.82 1 573.53 0 574.75-0.58 575.96-1.15 577.46-1.35L577.46-1.35 577.43-1.5Q575.38-1.85 574.41-2.71 573.43-3.58 573.43-4.95L573.43-4.95 573.43-4.98Q573.43-5.93 573.87-6.6 574.31-7.28 575.2-7.68 576.08-8.08 577.46-8.18L577.46-8.18 577.46-8.68 582.11-7.5 580.21-7.55Q578.51-7.53 577.86-7.14 577.21-6.75 577.21-5.98L577.21-5.98 577.21-5.95Q577.21-5.13 578.13-4.7 579.06-4.28 581.28-4.03L581.28-4.03 587.21-3.43Q591.08-3.03 592.86-1.56 594.63-0.1 594.63 2.75L594.63 2.75 594.63 2.88Q594.63 5.15 593.28 6.6 591.93 8.05 589.46 8.71 586.99 9.38 583.53 9.38L583.53 9.38ZM583.16-10.3L583.16-10.3Q585.26-10.3 586.65-10.91 588.03-11.53 588.75-12.76 589.46-14 589.46-15.8L589.46-15.8 589.46-16.4Q589.46-18.15 588.77-19.38 588.08-20.6 586.71-21.24 585.33-21.88 583.26-21.88L583.26-21.88 583.11-21.88Q580.86-21.88 579.45-21.19 578.03-20.5 577.4-19.26 576.76-18.03 576.76-16.38L576.76-16.38 576.76-15.8Q576.76-14 577.47-12.78 578.18-11.55 579.61-10.93 581.03-10.3 583.16-10.3ZM608.83-7.3L608.83-7.3Q603.86-7.3 601.19-9.47 598.53-11.65 598.53-15.7L598.53-15.7 598.53-16.32Q598.53-18.85 599.57-20.73 600.61-22.6 602.88-23.66 605.16-24.73 608.83-24.83L608.83-24.83 621.28-25.23 621.28-22.03 613.93-22.28 613.91-22.1Q615.63-21.75 616.73-20.9 617.83-20.05 618.37-18.78 618.91-17.5 618.91-15.8L618.91-15.8 618.91-15.25Q618.91-11.38 616.36-9.34 613.81-7.3 608.83-7.3ZM608.66 6.15L608.66 6.15 609.23 6.15Q611.48 6.15 613.09 5.81 614.71 5.48 615.58 4.75 616.46 4.03 616.46 2.83L616.46 2.83 616.46 2.73Q616.46 1.33 615.44 0.59 614.43-0.15 611.98-0.38L611.98-0.38 605.08-1 606.23-1.05Q604.83-0.85 603.77-0.4 602.71 0.05 602.11 0.79 601.51 1.53 601.51 2.63L601.51 2.63 601.51 2.68Q601.51 3.95 602.38 4.73 603.26 5.5 604.86 5.83 606.46 6.15 608.66 6.15ZM609.16 9.38L608.43 9.38Q605.13 9.38 602.74 8.81 600.36 8.25 599.04 6.99 597.73 5.73 597.73 3.6L597.73 3.6 597.73 3.5Q597.73 2 598.44 1 599.16 0 600.37-0.58 601.58-1.15 603.08-1.35L603.08-1.35 603.06-1.5Q601.01-1.85 600.03-2.71 599.06-3.58 599.06-4.95L599.06-4.95 599.06-4.98Q599.06-5.93 599.49-6.6 599.93-7.28 600.82-7.68 601.71-8.08 603.08-8.18L603.08-8.18 603.08-8.68 607.73-7.5 605.83-7.55Q604.13-7.53 603.48-7.14 602.83-6.75 602.83-5.98L602.83-5.98 602.83-5.95Q602.83-5.13 603.76-4.7 604.68-4.28 606.91-4.03L606.91-4.03 612.83-3.43Q616.71-3.03 618.48-1.56 620.26-0.1 620.26 2.75L620.26 2.75 620.26 2.88Q620.26 5.15 618.91 6.6 617.56 8.05 615.08 8.71 612.61 9.38 609.16 9.38L609.16 9.38ZM608.78-10.3L608.78-10.3Q610.88-10.3 612.27-10.91 613.66-11.53 614.37-12.76 615.08-14 615.08-15.8L615.08-15.8 615.08-16.4Q615.08-18.15 614.39-19.38 613.71-20.6 612.33-21.24 610.96-21.88 608.88-21.88L608.88-21.88 608.73-21.88Q606.48-21.88 605.07-21.19 603.66-20.5 603.02-19.26 602.38-18.03 602.38-16.38L602.38-16.38 602.38-15.8Q602.38-14 603.09-12.78 603.81-11.55 605.23-10.93 606.66-10.3 608.78-10.3ZM635.2 0.55L635.2 0.55Q629.63 0.55 626.8-2.18 623.98-4.9 623.98-9.98L623.98-9.98 623.98-14.33Q623.98-19.48 626.6-22.26 629.23-25.05 634.28-25.05L634.28-25.05Q637.68-25.05 639.95-23.79 642.23-22.53 643.38-20.2 644.53-17.88 644.53-14.65L644.53-14.65 644.53-13.75Q644.53-12.95 644.47-12.15 644.4-11.35 644.3-10.58L644.3-10.58 640.58-10.58Q640.63-11.78 640.64-12.85 640.65-13.93 640.65-14.83L640.65-14.83Q640.65-17.05 639.94-18.59 639.23-20.13 637.82-20.94 636.4-21.75 634.28-21.75L634.28-21.75Q631.13-21.75 629.55-19.93 627.98-18.1 627.98-14.7L627.98-14.7 627.98-12.38 628-11.88 628-9.55Q628-8.03 628.45-6.8 628.9-5.58 629.87-4.69 630.83-3.8 632.32-3.34 633.8-2.88 635.85-2.88L635.85-2.88Q638.23-2.88 640.28-3.5 642.33-4.13 644.13-5.2L644.13-5.2 643.75-1.7Q642.13-0.68 639.98-0.06 637.83 0.55 635.2 0.55ZM643.45-10.58L626.1-10.58 626.1-13.63 643.45-13.63 643.45-10.58ZM653.78-14.93L653.78-14.93 652.85-18.05 653.85-18.1Q654.65-21.2 656.6-22.99 658.55-24.78 661.78-24.78L661.78-24.78Q662.58-24.78 663.21-24.65 663.85-24.53 664.35-24.35L664.35-24.35 664.6-20.43Q663.98-20.63 663.21-20.75 662.45-20.88 661.53-20.88L661.53-20.88Q658.78-20.88 656.74-19.35 654.7-17.82 653.78-14.93ZM653.98 0L649.93 0 649.93-24.4 653.88-24.4 653.68-17.2 653.98-16.9 653.98 0Z" opacity="1" transform="matrix(1,0,0,1,0,0)" fill="#233565" class="slogan-text-1" data-fill-palette-color="secondary" id="text-1"></path></svg></g></svg></g></svg></g></svg></g></svg></g></svg></g></svg></g><path d="M160.853 64.324L160.853 8.015 392.024 8.015 392.024 239.185 160.853 239.185 160.853 182.876 167.471 182.876 167.471 232.568 385.406 232.568 385.406 14.632 167.471 14.632 167.471 64.324Z" fill="#233565" stroke="transparent" data-fill-palette-color="tertiary"></path></svg></g><defs></defs></svg><rect width="395.52" height="247.2" fill="none" stroke="none" visibility="hidden"></rect></g></svg></g></svg>